<svg xmlns="http://www.w3.org/2000/svg">

    <symbol id="menu" viewBox="0 0 512 512">
        <path d="M16 132h416c8.837 0 16-7.163 16-16V76c0-8.837-7.163-16-16-16H16C7.163 60 0 67.163 0 76v40c0 8.837 7.163 16 16 16zm0 160h416c8.837 0 16-7.163 16-16v-40c0-8.837-7.163-16-16-16H16c-8.837 0-16 7.163-16 16v40c0 8.837 7.163 16 16 16zm0 160h416c8.837 0 16-7.163 16-16v-40c0-8.837-7.163-16-16-16H16c-8.837 0-16 7.163-16 16v40c0 8.837 7.163 16 16 16z"/>
    </symbol>

    <symbol id="projects" viewBox="0 0 512 512">
        <path d="M204.8 230.4H25.6A25.6 25.6 0 010 204.8V25.6A25.6 25.6 0 0125.6 0h179.2a25.6 25.6 0 0125.6 25.6v179.2a25.6 25.6 0 01-25.6 25.6zM51.2 179.2h128v-128h-128v128zM486.4 230.4H307.2a25.6 25.6 0 01-25.6-25.6V25.6A25.6 25.6 0 01307.2 0h179.2A25.6 25.6 0 01512 25.6v179.2a25.6 25.6 0 01-25.6 25.6zm-153.6-51.2h128v-128h-128v128zM486.4 512H307.2a25.59 25.59 0 01-25.6-25.6V307.2a25.59 25.59 0 0125.6-25.6h179.2a25.59 25.59 0 0125.6 25.6v179.2a25.59 25.59 0 01-25.6 25.6zm-153.6-51.2h128v-128h-128v128zM204.8 512H25.6A25.6 25.6 0 010 486.4V307.2a25.6 25.6 0 0125.6-25.6h179.2a25.6 25.6 0 0125.6 25.6v179.2a25.6 25.6 0 01-25.6 25.6zM51.2 460.8h128v-128h-128v128z"/>
    </symbol>
    <symbol id="drive-apps" viewBox="0 0 512 512">
        <path d="M469.07 333.37c-22.52-93.95-59.72-179.1-110.58-253.06-14.19-20.64-31.95-40.22-52.8-58.21C289.86 8.42 273.16 1.32 256.1 1h-.19c-17.05.32-33.74 7.42-49.6 21.1-20.84 17.99-38.6 37.57-52.8 58.21-50.85 73.96-88.06 159.1-110.57 253.06C35 366.52 31.25 403.4 32.13 440c.56 24.02 10.81 44.45 28.85 57.52 12.3 8.9 27.23 13.5 42.99 13.5 8.3 0 16.82-1.28 25.3-3.85 18.42-5.58 35.17-14.76 49.42-22.92 14.04-8.04 27.75-16.61 41.05-24.93 8.67-5.43 17.64-11.04 26.48-16.35 3.56-2.14 6.64-3.1 9.7-3.06h.16c3.07-.04 6.14.92 9.7 3.06 8.84 5.31 17.8 10.92 26.5 16.37 13.27 8.3 26.99 16.87 41.03 24.91 14.25 8.16 31 17.34 49.41 22.92 24.63 7.46 49.53 3.95 68.3-9.65 18.04-13.07 28.29-33.5 28.86-57.52.87-36.6-2.87-73.47-10.81-106.62zM244.38 66.26c5.01-4.33 8.62-6.46 11.62-6.85 3 .39 6.6 2.52 11.62 6.85 16.83 14.52 31.64 30.8 42.85 47.1 46.79 68.05 81.07 146.64 101.91 233.6 6.78 28.32 9.97 60 9.22 91.64-.09 3.81-.99 8.93-4.77 11.67-3.83 2.77-10.26 3.18-17.2 1.07-12.59-3.81-25.36-10.84-37.37-17.72-13.08-7.5-26.3-15.76-39.1-23.77-8.89-5.56-18.08-11.3-27.36-16.88-12.6-7.58-25.88-11.42-39.48-11.42h-.64c-13.6 0-26.88 3.84-39.48 11.42-9.3 5.59-18.48 11.33-27.36 16.88-12.79 8-26 16.27-39.1 23.77-12 6.88-24.78 13.9-37.36 17.72-6.95 2.1-13.38 1.7-17.21-1.07-3.78-2.74-4.68-7.86-4.77-11.67-.75-31.63 2.44-63.32 9.22-91.63 20.84-86.97 55.12-165.56 101.9-233.6 11.22-16.3 26.03-32.6 42.86-47.11z"/>
    </symbol>
    <symbol id="history" viewBox="0 0 512 512">
        <path d="M486.4 150H25.6C11.46 150 0 138.8 0 125V25C0 11.2 11.46 0 25.6 0h460.8C500.55 0 512 11.2 512 25v100c0 13.8-11.45 25-25.6 25zM51.2 100h409.6V50H51.2v50zM486.4 512H25.6C11.46 512 0 500.82 0 487V387c0-13.82 11.46-25 25.6-25h460.8c14.15 0 25.6 11.18 25.6 25v100c0 13.82-11.45 25-25.6 25zM51.2 462h409.6v-50H51.2v50zM486.4 331H25.6C11.46 331 0 319.8 0 306V206c0-13.81 11.46-25 25.6-25h460.8c14.15 0 25.6 11.19 25.6 25v100c0 13.81-11.45 25-25.6 25zM51.2 281h409.6v-50H51.2v50z"/>
    </symbol>

    <symbol id="user" viewBox="0 0 512 512">
        <circle opacity=".1" cx="256" cy="256" r="256"/>
        <circle cx="256" cy="189.94" r="90.84"/>
        <path d="M256 454.2c-60.6 0-114.89-27.46-151.23-70.4 19.41-36.55 57.4-61.74 101.68-61.74 2.48 0 4.96.42 7.33 1.14 13.42 4.33 27.46 7.12 42.22 7.12 14.76 0 28.9-2.78 42.22-7.12a25.24 25.24 0 017.33-1.14c44.28 0 82.27 25.2 101.67 61.73-36.33 42.94-90.63 70.4-151.22 70.4z"/>
    </symbol>

    <symbol id="search" viewBox="0 0 512 512">
        <path d="M505 442.7L405.3 343c-4.5-4.5-10.6-7-17-7H372c27.6-35.3 44-79.7 44-128C416 93.1 322.9 0 208 0S0 93.1 0 208s93.1 208 208 208c48.3 0 92.7-16.4 128-44v16.3c0 6.4 2.5 12.5 7 17l99.7 99.7c9.4 9.4 24.6 9.4 33.9 0l28.3-28.3c9.4-9.4 9.4-24.6.1-34zM208 336c-70.7 0-128-57.2-128-128 0-70.7 57.2-128 128-128 70.7 0 128 57.2 128 128 0 70.7-57.2 128-128 128z"/>
    </symbol>

    <symbol id="close" viewBox="0 0 512 512">
        <path d="M353.05 256L498.6 110.44a45.76 45.76 0 000-64.7L466.25 13.4a45.76 45.76 0 00-64.7 0L256 158.95 110.44 13.4a45.76 45.76 0 00-64.7 0L13.4 45.74a45.76 45.76 0 000 64.7L158.95 256 13.4 401.56a45.76 45.76 0 000 64.7l32.35 32.34a45.76 45.76 0 0064.7 0L256 353.05 401.56 498.6a45.76 45.76 0 0064.7 0l32.34-32.35a45.76 45.76 0 000-64.7L353.05 256z"/>
    </symbol>

    <symbol id="drive-app-item" viewBox="0 0 512 512">
        <path d="M479.9 445c.9-37.1-3-74.5-11-108A769.5 769.5 0 00356.2 78.9 310.5 310.5 0 00303 20.2 74.2 74.2 0 00256 0c-16 .3-31.9 7.1-47 20.2-21 18.1-39 37.9-53.2 58.7A769.5 769.5 0 0043 336.9c-8 33.7-11.9 71-11 108.1a67 67 0 0027.1 54.3A68.5 68.5 0 0099.8 512c8 0 16.1-1.2 24.2-3.7a243.3 243.3 0 0049.5-23c14.3-8.2 28.3-17 42-25.5 9-5.6 18.2-11.4 27.3-16.9 4.6-2.8 8.8-4 13.2-4h.3c4.2 0 8.4 1.3 13 4 9.2 5.6 18.8 11.6 27.3 17 13.6 8.4 27.6 17.2 41.9 25.4a243.3 243.3 0 0049.5 23c23.4 7.1 47 3.8 64.8-9a67 67 0 0027-54.3zm-47.6-1.1c-.2 7.6-2.7 13.4-7.4 16.8-5.6 4-14 4.8-23.1 2A200 200 0 01362 444c-13.5-7.8-27.2-16.3-40.4-24.6-9-5.7-18.5-11.6-28-17.3a72 72 0 00-37.4-10.9h-.7a71.8 71.8 0 00-37.3 10.9c-9.6 5.8-19 11.6-28 17.3h-.1c-13.2 8.3-26.8 16.8-40.3 24.6a200 200 0 01-39.7 18.7 36.2 36.2 0 01-10.4 1.7c-5 0-9.3-1.3-12.7-3.7-4.7-3.4-7.2-9.2-7.4-16.8-.8-33 2.5-66.2 9.6-95.8A722.1 722.1 0 01195 105.9 266.7 266.7 0 01240 56.3c6.3-5.4 10.8-8 15.2-8.5l.8-.1h.8c4.4.6 9 3.2 15.2 8.6a266.7 266.7 0 0145 49.6c48.6 70.5 84 152 105.7 242.2a379 379 0 019.6 95.8z"/>
    </symbol>

    <symbol id="file-blank" viewBox="0 0 512 512">
        <path d="M72 16.7v478.6c0 8.75 7.97 16.7 16.73 16.7h334.54c8.76 0 16.73-7.95 16.73-16.7V128c0-4.38-1.79-8.73-4.88-11.83L323.61 4.87A16.95 16.95 0 00311.76 0H88.73C79.43-.02 72.05 9.36 72 16.7zm33.45 16.7h189.58V128c0 8.74 7.97 16.7 16.73 16.7h94.78v333.9H105.45V33.4zM328.5 56.86l54.53 54.44H328.5V56.87z"/>
    </symbol>
    <symbol id="download" viewBox="0 0 512 512">
        <path d="M505 355.3a24.3 24.3 0 00-41.3 17.1v91H48.5v-91a24.3 24.3 0 00-24.2-24.2A24.3 24.3 0 000 372.5V486c0 1.6 0 2.9.3 4.4a24.3 24.3 0 0024 21.6h463.2c11.6 0 21.4-8.4 23.7-19.5.5-2 .8-4 .8-6.3V372.6c0-6.6-2.7-12.7-7-17.3z"/>
        <path d="M235.5 378l.7.6c4.3 4.3 9.8 7 15.6 7.9l1.5.2 2.7.1 2.9-.1 1.5-.2a28 28 0 0015.6-8c.2 0 .5-.2.6-.6l118.8-119c11-11 11-28.9.5-40-11-11-29-11-40 0l-71.4 71.5V28.3A28 28 0 00256.3 0a28.4 28.4 0 00-28.2 28.3v262.1l-71.4-71.5a28.3 28.3 0 10-40 40l118.8 119z"/>
    </symbol>

    <symbol id="arrow-left" viewBox="0 0 512 512">
        <path d="M109.22 236.1L336.56 8.24a28.03 28.03 0 0139.7 0l26.52 26.58a28.19 28.19 0 01.05 39.75L222.65 255.99l180.16 181.44a28.18 28.18 0 01-.04 39.75l-26.52 26.58a28.03 28.03 0 01-39.7 0L109.22 275.9a28.2 28.2 0 010-39.8z"/>
    </symbol>
    <symbol id="arrow-right" viewBox="0 0 512 512">
        <path d="M402.78 236.1L175.44 8.24a28.03 28.03 0 00-39.7 0l-26.52 26.58a28.19 28.19 0 00-.04 39.75L289.34 256 109.18 437.43a28.18 28.18 0 00.04 39.75l26.52 26.58a28.03 28.03 0 0039.7 0L402.78 275.9a28.18 28.18 0 000-39.8z"/>
    </symbol>
    <symbol id="arrow-up" viewBox="0 0 128 128">
        <path fill-rule="evenodd" clip-rule="evenodd" d="M33.88 36.52a6.4 6.4 0 009.05 0L57.6 21.85v99.75a6.4 6.4 0 1012.8 0V21.85l14.67 14.67a6.4 6.4 0 009.06-9.05l-25.6-25.6a6.4 6.4 0 00-9.06 0l-25.6 25.6a6.4 6.4 0 000 9.05z"/>
    </symbol>
    <symbol id="arrow-down" viewBox="0 0 128 128">
        <path fill-rule="evenodd" clip-rule="evenodd" d="M94.125 91.474c-2.499-2.499-6.552-2.499-9.051 0L70.4 106.149V6.4C70.4 2.865 67.535 0 64 0s-6.4 2.865-6.4 6.4v99.749L42.926 91.474c-2.499-2.499-6.552-2.499-9.051 0-2.499 2.499-2.499 6.552 0 9.05l25.6 25.6c2.499 2.5 6.552 2.5 9.051 0l25.6-25.6c2.499-2.498 2.499-6.55-.001-9.05z"></path>
    </symbol>

    <symbol id="eye-open" viewBox="0 0 512 512">
        <path d="M256.1 166.5c-8.5.2-17 1.5-25 4a44.5 44.5 0 01-60.8 60.8 89.6 89.6 0 1085.8-64.8zm228.2 78.2c-43.5-85-129.6-142.3-228.2-142.3S71.4 159.8 28 244.7a26 26 0 000 23.4c43.5 84.8 129.6 142.3 228.2 142.3S441 352.9 484.3 268a26 26 0 000-23.5zM256.1 371.9A218.2 218.2 0 0165.3 256.4C104.5 185 177 140.9 256 140.9s151.7 44 190.9 115.5A218.1 218.1 0 01256 371.9z" />
    </symbol>
    <symbol id="eye-closed" viewBox="0 0 512 512">
        <path d="M507.3 428.5L29 54.2a12.8 12.8 0 00-18 2l-8 10a12.8 12.8 0 002 18l478.4 374.3a12.8 12.8 0 0018-2l8-10a12.8 12.8 0 00-2-18zM237.6 168.7L345.4 253a89.4 89.4 0 00-107.8-84.3zm37 175.4L167 259.7A89.4 89.4 0 00274.7 344zm-18.5-203c79 0 151.3 44 190.4 115.3a228.6 228.6 0 01-35.2 48.2l30.2 23.6c16.8-18 31-38.3 42.3-60.2a26 26 0 000-23.3c-43.5-84.8-129.3-142-227.7-142-29.3 0-57.3 5.5-83.7 15l37.1 29c15.2-3.4 30.7-5.7 46.6-5.7zm0 230.6c-78.9 0-151.2-44-190.3-115.3a228.6 228.6 0 0135.2-48.2l-30.2-23.7c-16.8 18-31 38.3-42.3 60.2a26 26 0 000 23.4C72 352.8 157.8 410 256.1 410c29.4 0 57.4-5.6 83.7-15L302.7 366a210.2 210.2 0 01-46.6 5.7z" />
    </symbol>

    <symbol id="loading" viewBox="0 0 512 512">
        <path d="M255.43 0v102.4h.57c84.76 0 153.6 68.84 153.6 153.6S340.76 409.6 256 409.6 102.4 340.76 102.4 256c0-15.93 2.28-31.86 7.4-47.22L12.52 177.5C3.98 202.52 0 229.26 0 256c0 141.08 114.92 256 256 256s256-114.92 256-256S397.08 0 255.43 0z"/>
    </symbol>
    <symbol id="loading-alt" viewBox="0 0 512 512">
        <path d="M285 402.78a29.02 29.02 0 10-58.02 0V483a29.01 29.01 0 0058.02 0v-80.22zM285 28.34a29.02 29.02 0 00-58 0h-.02v80.89a29.02 29.02 0 0058.02 0v-80.2-.69zM436.99 395.97l-56.66-56.66-.03-.02a29.01 29.01 0 00-41.03 41.03l56.72 56.72A29.02 29.02 0 00437.02 396l-.03-.04zM74.5 115.55l57.19 57.17v.03a29.03 29.03 0 0041.03-41.05l-56.69-56.67c0-.03 0-.03-.03-.05l-.03-.03-.44-.44v.02a29.01 29.01 0 00-41.01 41l-.02.02zM482.97 227h-80.15-.05a29.01 29.01 0 100 58.03h80.2a29.02 29.02 0 100-58.03zM109.2 285.03h.02a29.02 29.02 0 000-58.03H28.34a29.02 29.02 0 000 58v.03h80.86zM380.3 172.73l56.72-56.7a29.02 29.02 0 10-41.03-41.05l-.03.05-56.66 56.64-.03.03a29.02 29.02 0 0041.03 41.03zM131.69 339.28L75 395.97s-.02 0-.03.03c0 0-.02 0-.03.03l-.44.44h.02a29.04 29.04 0 00.45 40.56 29.06 29.06 0 0040.56.47l57.2-57.19a28.98 28.98 0 000-41.02 28.99 28.99 0 00-41.04 0z"/>
    </symbol>

    <symbol id="reset" viewBox="0 0 512 512">
        <path d="M511.93 261.3c.03-1.06.03-2.12.04-3.18.01-.71.03-1.41.03-2.12v-.06c0-1.88-.03-3.76-.07-5.63l-.02-.41a227.5 227.5 0 00-.2-5.16c-.01-.38-.04-.75-.06-1.13a221.6 221.6 0 00-.28-4.38l-.13-1.52c-.1-1.32-.22-2.64-.35-3.96l-.19-1.73c-.13-1.25-.27-2.5-.43-3.74l-.23-1.79-.52-3.69-.27-1.7c-.2-1.27-.4-2.53-.63-3.8l-.27-1.5c-.25-1.34-.5-2.69-.78-4.03l-.23-1.15c-.31-1.48-.64-2.97-.98-4.45l-.14-.63A220.83 220.83 0 00446.8 98.87a221.2 221.2 0 00-106.74-59.09l-.88-.2a224.17 224.17 0 00-19.69-3.55c-.9-.12-1.81-.25-2.72-.36l-2.7-.3-2.76-.3-2.79-.25-2.66-.22-3.05-.19-2.43-.14c-1.16-.06-2.33-.1-3.5-.13a223.88 223.88 0 00-6.35-.13l-1.15-.01h-.09l-2.64.03a223.31 223.31 0 00-55.72 7.7 221.17 221.17 0 00-99.19 57.42 221.66 221.66 0 00-42.69 59.92l-.02.06c-.6 1.24-1.2 2.5-1.78 3.75l-.67 1.45a208.93 208.93 0 00-2.82 6.48 220.23 220.23 0 00-16.4 68.99c-.04.4-.04.8-.02 1.2-.21 3.27-.37 6.54-.44 9.8H21.58c-19.19 0-28.8 23.15-15.23 36.68l85.08 84.87a21.58 21.58 0 0030.46 0l85.07-84.87c13.57-13.53 3.96-36.68-15.23-36.68h-52.99c.09-2.65.25-5.28.48-7.9.12-.5.22-1.02.27-1.55a148.7 148.7 0 0143.35-91.41c28.45-28.38 66.3-44 106.55-44s78.1 15.62 106.55 44A148.82 148.82 0 01440 256a148.8 148.8 0 01-44.06 106.06 149.9 149.9 0 01-106.55 44c-25.8 0-50.6-6.44-72.58-18.53a10.33 10.33 0 00-13.91 3.9l-25.65 44.4a10.32 10.32 0 003.88 14.18A222.01 222.01 0 00289.39 478c119.4 0 216.83-93.74 222.35-211.45l.02-.31c.07-1.64.13-3.3.17-4.94z"/>
    </symbol>

    <symbol id="expand" viewBox="0 0 512 512">
        <path d="M315.31 267.31L408 360l31.03-32.92c15.12-15.12 40.97-4.41 40.97 16.97v112A23.96 23.96 0 01456 480H344c-21.38 0-32.09-25.8-16.97-40.92L360 408l-92.69-92.69a16 16 0 010-22.62l25.38-25.38a16 16 0 0122.62 0z"/>
        <path d="M196.69 244.69L104 152l-31.03 32.92C57.85 200.04 32 189.33 32 167.95v-112A23.96 23.96 0 0156 32h112c21.38 0 32.09 25.8 16.97 40.92L152 104l92.69 92.69a16 16 0 010 22.62L219.3 244.7a16 16 0 01-22.62 0z"/>
    </symbol>
    <symbol id="collapse" viewBox="0 0 512 512">
        <path d="M427.31 475.31l-92.68-92.68-31.03 32.92c-15.12 15.12-40.97 4.41-40.97-16.97v-112a23.96 23.96 0 0124-23.95h112c21.38 0 32.09 25.8 16.97 40.92l-32.97 31.08 92.68 92.68a16 16 0 010 22.63l-25.37 25.37a16 16 0 01-22.63 0z"/>
        <path d="M84.69 36.69l92.68 92.68 31.03-32.92c15.12-15.12 40.97-4.41 40.97 16.97v112a23.96 23.96 0 01-24 23.95h-112c-21.38 0-32.09-25.8-16.97-40.92l32.97-31.08L36.7 84.7a16 16 0 010-22.63l25.37-25.37a16 16 0 0122.63 0z"/>
    </symbol>

    <symbol id="calendar" viewBox="0 0 128 128">
        <path d="M6 25.6c0-7.04 5.8-12.8 12.889-12.8h90.222c7.118 0 12.889 5.731 12.889 12.8v89.6c0 7.069-5.771 12.8-12.889 12.8H18.889C11.771 128 6 122.269 6 115.2V25.6zm12.889 12.8v76.8h90.222V38.4H18.889zM31.778 0h12.889v12.8H31.778V0zm51.555 0h12.889v12.8H83.333V0zM31.778 57.6h12.889v12.8H31.778V57.6zm0 25.6h12.889V96H31.778V83.2zm25.778-25.6h12.889v12.8H57.556V57.6zm0 25.6h12.889V96H57.556V83.2zm25.777-25.6h12.889v12.8H83.333V57.6zm0 25.6h12.889V96H83.333V83.2z"></path>
    </symbol>

</svg>
